<svg width="210" height="60" viewBox="0 0 210 60" fill="none" xmlns="http://www.w3.org/2000/svg">
<g clip-path="url(#clip0_2_260)">
<path d="M209.517 59.16H0V0.00173569H209.517V59.16Z" fill="#8A160B"/>
<path d="M206.56 56.2017H2.95685V2.95911H206.56V56.2017Z" fill="white"/>
<path d="M204.71 54.3539H4.8064V4.80788H204.71V54.3539Z" fill="#8A160B"/>
<path d="M13.5115 30.6609V28.8H15.3719V13.9183H13.5115V12.0574H20.6256V13.9183H19.0924L19.1178 20.9818L25.7337 13.9183H24.1559V12.0574H29.5126V13.9183H28.2619L22.4371 20.153L29.5815 28.8H30.9959V30.6609H23.9045V28.8H25.1552L19.0924 21.5018V28.8H20.6256V30.6609H13.5115Z" fill="white"/>
<path d="M37.021 30.8983L32.838 13.9183H31.7568V12.0573H38.394V13.9183H36.5353L39.1671 24.5522L42.7626 12.2087H44.9314L48.3678 24.853L51.5091 13.9183H49.644V12.0573H54.6213V13.9183H53.5214L48.6634 30.8983H46.4463L42.9256 18.0408L39.1796 30.8983H37.021Z" fill="white"/>
<path d="M60.7677 23.3313H66.6933L63.7229 15.8531L60.7677 23.3313ZM60.0023 25.2678L58.6073 28.8H60.4738V30.6609H55.433V28.8H56.533L63.2432 11.8174H66.1491L72.8526 28.8H73.9477V30.6609H66.9973V28.8H68.8638L67.462 25.2678H60.0023Z" fill="white"/>
<path d="M88.2756 30.8487L79.0336 17.647V28.8H80.8933V30.6609H74.6213V28.8H76.4809V13.9183H74.6213V12.0574H79.1338L88.3852 25.3435V13.9183H86.5241V12.0574H92.7974V13.9183H90.9374V30.8487H88.2756Z" fill="white"/>
<path d="M110.15 30.2704C107.595 30.84 105.49 31.1252 103.84 31.1252C100.907 31.1252 98.5817 30.2443 96.8644 28.4852C95.1461 26.7261 94.2878 24.3417 94.2878 21.3339C94.2878 18.2426 95.1348 15.8452 96.8331 14.1443C98.5296 12.4434 100.924 11.5913 104.016 11.5913C105.114 11.5913 106.186 11.6565 107.234 11.7869C108.282 11.9165 109.309 12.1165 110.314 12.3843V16.3313H108.203L108.051 14.4713C107.365 14.1269 106.689 13.8704 106.023 13.7034C105.358 13.5365 104.698 13.4521 104.046 13.4521C102.289 13.4521 100.91 14.1582 99.9096 15.5704C98.9096 16.9817 98.4104 18.9295 98.4104 21.4095C98.4104 23.8391 98.967 25.7513 100.079 27.1469C101.192 28.5417 102.718 29.2391 104.659 29.2391C105.195 29.2391 105.73 29.1443 106.266 28.9513V24.1104H104.405V22.2504H111.545V24.1104H110.15V30.2704Z" fill="white"/>
<path d="M118.263 30.8983L114.079 13.9183H112.997V12.0573H119.635V13.9183H117.776L120.409 24.5522L124.004 12.2087H126.174L129.609 24.853L132.751 13.9183H130.885V12.0573H135.863V13.9183H134.763L129.905 30.8983H127.689L124.166 18.0408L120.421 30.8983H118.263Z" fill="white"/>
<path d="M146.616 29.2643C148.196 29.2643 149.463 28.5417 150.416 27.0965C151.369 25.6513 151.846 23.7391 151.846 21.3591C151.846 18.9713 151.369 17.0548 150.416 15.6139C149.463 14.173 148.196 13.4521 146.616 13.4521C145.046 13.4521 143.783 14.173 142.83 15.6139C141.876 17.0548 141.401 18.9713 141.401 21.3591C141.401 23.7478 141.876 25.6617 142.83 27.1026C143.783 28.5434 145.046 29.2643 146.616 29.2643ZM146.616 31.1252C143.726 31.1252 141.447 30.253 139.779 28.5104C138.111 26.7669 137.277 24.3843 137.277 21.3591C137.277 18.3339 138.111 15.9495 139.779 14.2061C141.447 12.4635 143.726 11.5913 146.616 11.5913C149.508 11.5913 151.79 12.4635 153.461 14.2061C155.134 15.9495 155.97 18.3339 155.97 21.3591C155.97 24.3843 155.134 26.7669 153.461 28.5104C151.79 30.253 149.508 31.1252 146.616 31.1252Z" fill="white"/>
<path d="M167.012 29.2643C168.592 29.2643 169.859 28.5417 170.812 27.0965C171.764 25.6513 172.242 23.7391 172.242 21.3591C172.242 18.9713 171.764 17.0548 170.812 15.6139C169.859 14.173 168.592 13.4521 167.012 13.4521C165.442 13.4521 164.18 14.173 163.225 15.6139C162.272 17.0548 161.795 18.9713 161.795 21.3591C161.795 23.7478 162.272 25.6617 163.225 27.1026C164.18 28.5434 165.442 29.2643 167.012 29.2643ZM167.012 31.1252C164.122 31.1252 161.843 30.253 160.175 28.5104C158.507 26.7669 157.673 24.3843 157.673 21.3591C157.673 18.3339 158.507 15.9495 160.175 14.2061C161.843 12.4635 164.122 11.5913 167.012 11.5913C169.904 11.5913 172.184 12.4635 173.857 14.2061C175.528 15.9495 176.364 18.3339 176.364 21.3591C176.364 24.3843 175.528 26.7669 173.857 28.5104C172.184 30.253 169.904 31.1252 167.012 31.1252Z" fill="white"/>
<path d="M191.483 30.8487L182.24 17.647V28.8H184.1V30.6609H177.83V28.8H179.69V13.9183H177.83V12.0574H182.34L191.591 25.3435V13.9183H189.731V12.0574H196.005V13.9183H194.144V30.8487H191.483Z" fill="white"/>
<path d="M17.6943 39.7626V46.0895C17.6943 47.7826 18.2541 48.3565 18.9827 48.3565C19.7803 48.3565 20.2837 47.7409 20.2837 46.0895V39.7626H21.3621V45.9226C21.3621 48.3704 20.3533 49.3096 18.9538 49.3096C17.5408 49.3096 16.6169 48.3852 16.6169 46.0478V39.7626H17.6943Z" fill="white"/>
<path d="M37.0295 49.1965V39.7626H38.052L39.787 44.1852C40.1794 45.1947 40.6691 46.453 40.9908 47.4756H41.019C40.9351 45.9921 40.8933 44.7739 40.8933 43.1374V39.7626H41.859V49.1965H40.8373L39.0455 44.6608C38.6678 43.7104 38.2619 42.6313 37.9256 41.4565H37.8981C37.9813 42.7165 38.0102 43.9208 38.0102 45.9348V49.1965H37.0295Z" fill="white"/>
<path d="M58.6203 39.7626V49.1965H57.5417V39.7626H58.6203Z" fill="white"/>
<path d="M75.8685 49.1965L73.7133 39.7626H74.8607L75.7846 44.1852C76.0082 45.2504 76.2881 46.6078 76.4562 47.8113H76.498C76.6383 46.593 76.9045 45.2773 77.1281 44.1582L78.0248 39.7626H79.1722L76.9742 49.1965H75.8685Z" fill="white"/>
<path d="M97.667 44.7182H95.3035V48.2591H97.9896V49.1965H94.2244V39.7626H97.8218V40.7008H95.3035V43.8087H97.667V44.7182Z" fill="white"/>
<path d="M114.261 44.2565H114.708C115.743 44.2565 116.43 43.5008 116.43 42.3669C116.43 41.2747 115.982 40.6017 114.82 40.5895C114.611 40.5895 114.401 40.6017 114.261 40.6443V44.2565ZM113.183 39.9035C113.644 39.7765 114.203 39.7208 114.737 39.7208C115.674 39.7208 116.374 39.9174 116.863 40.393C117.325 40.8687 117.522 41.4991 117.522 42.24C117.522 43.4443 116.962 44.2278 116.01 44.6608V44.6904C116.71 44.9 117.074 45.5713 117.284 46.8034C117.493 48.1052 117.689 48.9026 117.816 49.1965H116.723C116.583 48.9173 116.403 48.0217 116.219 46.8591C116.01 45.5713 115.604 45.0826 114.681 45.0826H114.261V49.1965H113.183V39.9035Z" fill="white"/>
<path d="M132.699 47.9522C133.022 48.1617 133.582 48.3287 134.057 48.3287C135.037 48.3287 135.625 47.6852 135.625 46.733C135.625 45.8652 135.121 45.3339 134.378 44.7739C133.638 44.2565 132.602 43.3748 132.602 42.1557C132.602 40.7278 133.596 39.68 135.093 39.68C135.681 39.68 136.199 39.8617 136.423 40.0296L136.156 40.9531C135.919 40.7852 135.526 40.6313 135.037 40.6313C134.113 40.6313 133.678 41.3304 133.678 41.9739C133.678 42.9122 134.17 43.2757 135.066 43.9209C136.199 44.7183 136.703 45.5852 136.703 46.6365C136.703 48.2591 135.556 49.2809 134.057 49.2809C133.414 49.2809 132.728 49.0713 132.461 48.8748L132.699 47.9522Z" fill="white"/>
<path d="M153.043 39.7626V49.1965H151.965V39.7626H153.043Z" fill="white"/>
<path d="M169.857 40.7278H168.136V39.7626H172.658V40.7278H170.936V49.1965H169.857V40.7278Z" fill="white"/>
<path d="M189.362 49.1965V45.2078L187.29 39.7626H188.423L189.263 42.1287C189.501 42.7861 189.754 43.5286 189.963 44.2565H189.991C190.187 43.5286 190.424 42.8147 190.677 42.086L191.474 39.7626H192.607L190.438 45.1669V49.1965H189.362Z" fill="white"/>
</g>
<defs>
<clipPath id="clip0_2_260">
<rect width="209.513" height="60" fill="white"/>
</clipPath>
</defs>
</svg>
